<svg width="20" height="20" viewBox="0 0 20 20" fill="none" xmlns="http://www.w3.org/2000/svg">
<path d="M17.5009 8.63653H11.3645V2.50014C11.3645 2.50014 10.9063 2.50014 10.3418 2.50014H9.66002C9.09547 2.50014 8.63729 2.5 8.63729 2.5V8.63653H2.5C2.5 8.63653 2.50091 9.09471 2.50091 9.65926V10.341C2.50091 10.9056 2.50091 11.3638 2.50091 11.3638H8.63729V17.5001C8.63729 17.5001 9.09547 17.5001 9.66002 17.5001H10.3418C10.9063 17.5001 11.3645 17.5001 11.3645 17.5001V11.3638H17.5009C17.5009 11.3638 17.5009 10.9056 17.5009 10.341V9.65926C17.5009 9.09471 17.5009 8.63653 17.5009 8.63653Z" fill="#9FA2B4" fill-opacity="0.54"/>
</svg>
