<svg width="28" height="36" viewBox="0 0 28 36" fill="none" xmlns="http://www.w3.org/2000/svg">
<path d="M14.0008 10.3004V0.400391H4.10078C3.22557 0.400391 2.3862 0.748068 1.76733 1.36694C1.14846 1.98581 0.800781 2.82518 0.800781 3.70039V32.3004C0.800781 33.1756 1.14846 34.015 1.76733 34.6338C2.3862 35.2527 3.22557 35.6004 4.10078 35.6004H23.9008C24.776 35.6004 25.6154 35.2527 26.2342 34.6338C26.8531 34.015 27.2008 33.1756 27.2008 32.3004V13.6004H17.3008C16.4256 13.6004 15.5862 13.2527 14.9673 12.6338C14.3485 12.015 14.0008 11.1756 14.0008 10.3004ZM5.20078 19.1004C5.20078 18.8087 5.31667 18.5289 5.52296 18.3226C5.72925 18.1163 6.00904 18.0004 6.30078 18.0004C6.59252 18.0004 6.87231 18.1163 7.0786 18.3226C7.28489 18.5289 7.40078 18.8087 7.40078 19.1004C7.40078 19.3921 7.28489 19.6719 7.0786 19.8782C6.87231 20.0845 6.59252 20.2004 6.30078 20.2004C6.00904 20.2004 5.72925 20.0845 5.52296 19.8782C5.31667 19.6719 5.20078 19.3921 5.20078 19.1004ZM5.20078 23.5004C5.20078 23.2087 5.31667 22.9289 5.52296 22.7226C5.72925 22.5163 6.00904 22.4004 6.30078 22.4004C6.59252 22.4004 6.87231 22.5163 7.0786 22.7226C7.28489 22.9289 7.40078 23.2087 7.40078 23.5004C7.40078 23.7921 7.28489 24.0719 7.0786 24.2782C6.87231 24.4845 6.59252 24.6004 6.30078 24.6004C6.00904 24.6004 5.72925 24.4845 5.52296 24.2782C5.31667 24.0719 5.20078 23.7921 5.20078 23.5004ZM5.20078 27.9004C5.20078 27.6087 5.31667 27.3289 5.52296 27.1226C5.72925 26.9163 6.00904 26.8004 6.30078 26.8004C6.59252 26.8004 6.87231 26.9163 7.0786 27.1226C7.28489 27.3289 7.40078 27.6087 7.40078 27.9004C7.40078 28.1921 7.28489 28.4719 7.0786 28.6782C6.87231 28.8845 6.59252 29.0004 6.30078 29.0004C6.00904 29.0004 5.72925 28.8845 5.52296 28.6782C5.31667 28.4719 5.20078 28.1921 5.20078 27.9004ZM9.60078 19.1004C9.60078 18.8087 9.71667 18.5289 9.92296 18.3226C10.1293 18.1163 10.409 18.0004 10.7008 18.0004H21.7008C21.9925 18.0004 22.2723 18.1163 22.4786 18.3226C22.6849 18.5289 22.8008 18.8087 22.8008 19.1004C22.8008 19.3921 22.6849 19.6719 22.4786 19.8782C22.2723 20.0845 21.9925 20.2004 21.7008 20.2004H10.7008C10.409 20.2004 10.1293 20.0845 9.92296 19.8782C9.71667 19.6719 9.60078 19.3921 9.60078 19.1004ZM9.60078 23.5004C9.60078 23.2087 9.71667 22.9289 9.92296 22.7226C10.1293 22.5163 10.409 22.4004 10.7008 22.4004H21.7008C21.9925 22.4004 22.2723 22.5163 22.4786 22.7226C22.6849 22.9289 22.8008 23.2087 22.8008 23.5004C22.8008 23.7921 22.6849 24.0719 22.4786 24.2782C22.2723 24.4845 21.9925 24.6004 21.7008 24.6004H10.7008C10.409 24.6004 10.1293 24.4845 9.92296 24.2782C9.71667 24.0719 9.60078 23.7921 9.60078 23.5004ZM9.60078 27.9004C9.60078 27.6087 9.71667 27.3289 9.92296 27.1226C10.1293 26.9163 10.409 26.8004 10.7008 26.8004H21.7008C21.9925 26.8004 22.2723 26.9163 22.4786 27.1226C22.6849 27.3289 22.8008 27.6087 22.8008 27.9004C22.8008 28.1921 22.6849 28.4719 22.4786 28.6782C22.2723 28.8845 21.9925 29.0004 21.7008 29.0004H10.7008C10.409 29.0004 10.1293 28.8845 9.92296 28.6782C9.71667 28.4719 9.60078 28.1921 9.60078 27.9004ZM16.2008 10.3004V0.950391L26.6508 11.4004H17.3008C17.009 11.4004 16.7293 11.2845 16.523 11.0782C16.3167 10.8719 16.2008 10.5921 16.2008 10.3004Z" fill="#4455EA"/>
</svg>
