<svg width="16" height="20" viewBox="0 0 16 20" fill="none" xmlns="http://www.w3.org/2000/svg">
<path d="M16 9.76176C16 11.8961 15.0181 13.9099 13.3064 15.2871L11.8196 13.6038C13.01 12.6461 13.6927 11.2456 13.6927 9.76176C13.6927 7.09261 11.4981 4.90989 8.74093 4.75476H7.61235L8.5628 7.05076C8.57832 7.08817 8.58052 7.12942 8.56907 7.16814C8.55761 7.20687 8.53314 7.24093 8.49942 7.26509C8.46579 7.28941 8.4247 7.30251 8.3825 7.30235C8.3403 7.30219 8.29932 7.28878 8.26589 7.2642L3.53993 3.7969C3.51649 3.7797 3.4975 3.75759 3.48443 3.73227C3.47136 3.70696 3.46456 3.67912 3.46455 3.6509C3.46455 3.59369 3.49248 3.53968 3.53993 3.505L8.26636 0.0378832C8.29991 0.0131501 8.34116 -0.000182076 8.38356 1.87837e-06C8.41501 -1.71442e-05 8.44599 0.00730013 8.47381 0.0213167C8.50162 0.0353333 8.52542 0.0556242 8.54314 0.0804232C8.56085 0.105222 8.57195 0.133777 8.57546 0.163603C8.57896 0.193429 8.57478 0.22362 8.56327 0.25155L7.61281 2.54718L8.43013 2.54947V2.53783C8.72221 2.53783 9.01048 2.55547 9.29416 2.58646C9.48232 2.60516 9.69231 2.63171 9.85172 2.66753C13.3479 3.30444 16 6.24222 16 9.76176ZM7.73376 12.736C7.70035 12.7114 7.65937 12.6979 7.61715 12.6978C7.57493 12.6976 7.53384 12.7107 7.50024 12.7351C7.46661 12.7594 7.44222 12.7935 7.4308 12.8323C7.41937 12.871 7.42154 12.9122 7.43697 12.9497L8.38742 15.2456H7.25888C4.50227 15.0902 2.30731 12.9072 2.30731 10.2384C2.30731 8.84948 2.88824 7.55717 3.94302 6.59953L2.35233 5.00454C0.835409 6.38204 0 8.24054 0 10.2384C0 13.7576 2.65171 16.6956 6.14867 17.3325C6.30839 17.3682 6.5183 17.3947 6.70634 17.4135C6.99002 17.4446 7.27802 17.4622 7.57038 17.4622V17.4505L8.38765 17.4528L7.4372 19.7485C7.42563 19.7764 7.4214 19.8066 7.42488 19.8364C7.42835 19.8662 7.43943 19.8948 7.45715 19.9196C7.47486 19.9444 7.49867 19.9647 7.5265 19.9787C7.55433 19.9928 7.58532 20.0001 7.61679 20C7.65924 20.0001 7.70055 19.9868 7.73422 19.9622L12.4599 16.4947C12.4834 16.4776 12.5024 16.4555 12.5155 16.4302C12.5286 16.4049 12.5354 16.3771 12.5354 16.3489C12.5354 16.3207 12.5286 16.2929 12.5155 16.2676C12.5024 16.2424 12.4834 16.2203 12.4599 16.2031L7.73376 12.736Z" fill="#606EEA"/>
</svg>
