<svg width="19" height="26" viewBox="0 0 19 26" fill="none" xmlns="http://www.w3.org/2000/svg">
<path d="M10.0467 24.5228C9.78802 24.8109 9.33536 24.8114 9.07618 24.5228C8.91244 24.3404 6.88968 22.0705 4.90863 19.1054C3.91809 17.6228 2.93975 15.969 2.20942 14.3174C1.47836 12.6642 1 11.0224 1 9.5614C1 4.84076 4.84076 1 9.56148 1C14.2821 1 18.1228 4.84076 18.1229 9.5614C18.1229 11.0224 17.6446 12.6642 16.9135 14.3174C16.1832 15.969 15.2048 17.6228 14.2143 19.1054C12.2333 22.0705 10.2105 24.3404 10.0467 24.5228ZM5.05796 9.5614C5.05796 12.0448 7.07808 14.0649 9.56148 14.0649C12.0448 14.0649 14.0649 12.0448 14.0649 9.56145C14.0649 7.07808 12.0448 5.0579 9.56148 5.0579C7.07813 5.0579 5.05796 7.07803 5.05796 9.5614Z" fill="#D36464"/>
<path d="M10.0467 24.5228L10.1438 24.6099M10.0467 24.5228C9.78802 24.8109 9.33536 24.8114 9.07618 24.5228M10.0467 24.5228C10.2105 24.3404 12.2333 22.0705 14.2143 19.1054C15.2048 17.6228 16.1832 15.969 16.9135 14.3174C17.6446 12.6642 18.1229 11.0224 18.1229 9.5614C18.1228 4.84076 14.2821 1 9.56148 1C4.84076 1 1 4.84076 1 9.5614C1 11.0224 1.47836 12.6642 2.20942 14.3174C2.93975 15.969 3.91809 17.6228 4.90863 19.1054C6.88968 22.0705 8.91244 24.3404 9.07618 24.5228M9.07618 24.5228L8.98989 24.6003M5.05796 9.5614C5.05796 12.0448 7.07808 14.0649 9.56148 14.0649C12.0448 14.0649 14.0649 12.0448 14.0649 9.56145C14.0649 7.07808 12.0448 5.0579 9.56148 5.0579C7.07813 5.0579 5.05796 7.07803 5.05796 9.5614Z" stroke="#BD0000"/>
</svg>
