<svg  width="20px" height="20px" id="Layer_1" data-name="Layer 1" xmlns="http://www.w3.org/2000/svg" viewBox="0 0 128 128"><title>PDA</title><path d="M93.747,0H34.253A11.764,11.764,0,0,0,22.5,11.75v97.818a11.726,11.726,0,0,0,7.1,10.792l13.545,7.387a1.744,1.744,0,0,0,.838.214H84.013a1.744,1.744,0,0,0,.838-.214L98.4,120.36a11.726,11.726,0,0,0,7.1-10.792V11.75A11.764,11.764,0,0,0,93.747,0ZM102,109.568a8.234,8.234,0,0,1-5.045,7.6,1.679,1.679,0,0,0-.158.076l-13.228,7.214H44.434l-13.228-7.214a1.679,1.679,0,0,0-.158-.076,8.234,8.234,0,0,1-5.045-7.6V11.75a8.26,8.26,0,0,1,8.25-8.25H93.747A8.26,8.26,0,0,1,102,11.75Z"/><path d="M95.5,89.25V21.756a1.75,1.75,0,0,0-1.75-1.75H34.253a1.75,1.75,0,0,0-1.75,1.75V89.25A1.772,1.772,0,0,0,34.252,91h59.5A1.75,1.75,0,0,0,95.5,89.25ZM92,87.5H36V23.506H92Z"/><path d="M52.25,13.5h23.5a1.75,1.75,0,0,0,0-3.5H52.25a1.75,1.75,0,0,0,0,3.5Z"/><path d="M71.25,99.875H56.75a5.756,5.756,0,0,0-5.75,5.75v2a5.756,5.756,0,0,0,5.75,5.75h14.5a5.756,5.756,0,0,0,5.75-5.75v-2A5.756,5.756,0,0,0,71.25,99.875Zm2.25,7.75a2.253,2.253,0,0,1-2.25,2.25H56.75a2.253,2.253,0,0,1-2.25-2.25v-2a2.253,2.253,0,0,1,2.25-2.25h14.5a2.253,2.253,0,0,1,2.25,2.25Z"/><path d="M95.125,102.875H88a1.75,1.75,0,0,0,0,3.5h7.125a1.75,1.75,0,0,0,0-3.5Z"/><path d="M40,102.875H32.875a1.75,1.75,0,0,0,0,3.5H40a1.75,1.75,0,0,0,0-3.5Z"/></svg>