<svg
		xmlns="http://www.w3.org/2000/svg"
		width="36"
		height="36"
		viewBox="0 0 36 36"
		fill="none"
	>
		<g clipPath="url(#clip0_3_738)">
			<path
				d="M18.027 36C17.0706 35.9953 16.1544 35.6151 15.4764 34.9415C14.7984 34.2679 14.4131 33.355 14.4036 32.4H21.6144C21.6188 32.8811 21.5275 33.3584 21.3458 33.804C21.1126 34.3381 20.7556 34.8091 20.3043 35.1784C19.8529 35.5477 19.3202 35.8046 18.7499 35.928H18.667C18.4563 35.9716 18.2421 35.9957 18.027 36ZM32.4487 30.6H3.60541V27L7.21082 25.2V15.3C7.11584 12.7604 7.69022 10.2404 8.87651 7.992C9.4603 6.96108 10.2564 6.06548 11.2122 5.36426C12.168 4.66305 13.2619 4.17217 14.4216 3.924V0H21.6325V3.924C26.2816 5.0292 28.8433 9.0684 28.8433 15.3V25.2L32.4487 27V30.6ZM36 14.4H32.3946C32.3117 12.1009 31.7208 9.84861 30.6644 7.80417C29.6079 5.75973 28.1119 3.97374 26.2834 2.574L28.8433 0C30.9994 1.67486 32.7417 3.82159 33.9359 6.2748C35.1707 8.81465 35.8731 11.5795 36 14.4ZM3.60541 14.4H0C0.126189 11.5794 0.829244 8.8146 2.0641 6.2748C3.25832 3.82159 5.00061 1.67486 7.15673 0L9.71657 2.574C7.88793 3.97357 6.3918 5.75952 5.33531 7.804C4.27881 9.84847 3.68808 12.1009 3.60541 14.4Z"
				fill="white"
			/>
		</g>
		<defs>
			<clipPath id="clip0_3_738">
				<rect width="36" height="36" fill="white" />
			</clipPath>
		</defs>
	</svg>