<svg
		xmlns="http://www.w3.org/2000/svg"
		width="36"
		height="36"
		viewBox="0 0 36 36"
		fill="none"
	>
		<path
			d="M33.5854 26.5938L25.3946 7.84394C25.1034 7.17715 24.4688 6.75 23.7704 6.75H18.0523L18.1958 8.10702C18.2251 8.38358 18.0078 8.62499 17.7294 8.62499H16.0209C15.7425 8.62499 15.5252 8.38358 15.5545 8.10702L15.698 6.75H9.97988C9.28086 6.75 8.6463 7.17715 8.35509 7.84394L0.164328 26.5938C-0.37766 27.8354 0.487178 29.2498 1.78971 29.2498H13.3232L13.9273 23.5264C13.9777 23.0495 14.3797 22.6874 14.8595 22.6874H18.8908C19.3706 22.6874 19.7726 23.0495 19.823 23.5264L20.4271 29.2498H31.9606C33.2631 29.2498 34.128 27.8354 33.5854 26.5938ZM15.258 10.9195C15.2701 10.8043 15.3245 10.6977 15.4106 10.6202C15.4968 10.5427 15.6085 10.4999 15.7244 10.5H18.0265C18.2662 10.5 18.4677 10.681 18.4929 10.9195L18.7624 13.473C18.8064 13.8884 18.4806 14.2499 18.0634 14.2499H15.688C15.2703 14.2499 14.9451 13.8884 14.989 13.473L15.258 10.9195ZM18.4947 20.8124H15.255C14.6984 20.8124 14.2642 20.3302 14.3228 19.7765L14.6199 16.964C14.6703 16.487 15.0722 16.1249 15.5521 16.1249H18.1976C18.6775 16.1249 19.0794 16.487 19.1298 16.964L19.4269 19.7765C19.4855 20.3302 19.0513 20.8124 18.4947 20.8124Z"
			fill="white"
		/>
	</svg>