<svg width="20" height="20" viewBox="0 0 20 20" fill="none" xmlns="http://www.w3.org/2000/svg">
<path d="M4 3.8C4 3.32261 4.17779 2.86477 4.49426 2.52721C4.81073 2.18964 5.23995 2 5.6875 2H8.878V5.7984C8.878 6.03478 8.92165 6.26884 9.00645 6.48723C9.09126 6.70562 9.21556 6.90405 9.37226 7.07119C9.68872 7.40876 10.1179 7.5984 10.5655 7.5984H14.125V14.2C14.125 14.6774 13.9472 15.1352 13.6307 15.4728C13.3143 15.8104 12.8851 16 12.4375 16H5.6875C5.23995 16 4.81073 15.8104 4.49426 15.4728C4.17779 15.1352 4 14.6774 4 14.2V3.8ZM6.8125 9.6C6.66332 9.6 6.52024 9.66321 6.41475 9.77574C6.30926 9.88826 6.25 10.0409 6.25 10.2C6.25 10.3591 6.30926 10.5117 6.41475 10.6243C6.52024 10.7368 6.66332 10.8 6.8125 10.8C6.96168 10.8 7.10476 10.7368 7.21025 10.6243C7.31574 10.5117 7.375 10.3591 7.375 10.2C7.375 10.0409 7.31574 9.88826 7.21025 9.77574C7.10476 9.66321 6.96168 9.6 6.8125 9.6ZM6.25 12.6C6.25 12.7591 6.30926 12.9117 6.41475 13.0243C6.52024 13.1368 6.66332 13.2 6.8125 13.2C6.96168 13.2 7.10476 13.1368 7.21025 13.0243C7.31574 12.9117 7.375 12.7591 7.375 12.6C7.375 12.4409 7.31574 12.2883 7.21025 12.1757C7.10476 12.0632 6.96168 12 6.8125 12C6.66332 12 6.52024 12.0632 6.41475 12.1757C6.30926 12.2883 6.25 12.4409 6.25 12.6ZM8.5 10.2C8.5 10.5312 8.752 10.8 9.0625 10.8H11.353C11.5022 10.8 11.6453 10.7368 11.7507 10.6243C11.8562 10.5117 11.9155 10.3591 11.9155 10.2C11.9155 10.0409 11.8562 9.88826 11.7507 9.77574C11.6453 9.66321 11.5022 9.6 11.353 9.6H9.0625C8.91332 9.6 8.77024 9.66321 8.66475 9.77574C8.55926 9.88826 8.5 10.0409 8.5 10.2ZM9.0625 12C8.91332 12 8.77024 12.0632 8.66475 12.1757C8.55926 12.2883 8.5 12.4409 8.5 12.6C8.5 12.7591 8.55926 12.9117 8.66475 13.0243C8.77024 13.1368 8.91332 13.2 9.0625 13.2H11.353C11.5022 13.2 11.6453 13.1368 11.7507 13.0243C11.8562 12.9117 11.9155 12.7591 11.9155 12.6C11.9155 12.4409 11.8562 12.2883 11.7507 12.1757C11.6453 12.0632 11.5022 12 11.353 12H9.0625ZM10.003 5.7984V2.3744C10.06 2.4208 10.1155 2.472 10.1665 2.5272L13.6307 6.2224C13.6832 6.2784 13.7313 6.3368 13.7755 6.3984H10.5655C10.4163 6.3984 10.2732 6.33519 10.1678 6.22266C10.0623 6.11014 10.003 5.95753 10.003 5.7984ZM5.97175 16.8C6.08806 17.1509 6.30348 17.4547 6.58836 17.6696C6.87325 17.8845 7.21358 17.9999 7.5625 18H12.4375C12.9053 18 13.3686 17.9017 13.8008 17.7107C14.233 17.5198 14.6258 17.2399 14.9566 16.887C15.2874 16.5341 15.5498 16.1152 15.7288 15.6542C15.9079 15.1932 16 14.699 16 14.2V9.4952C15.9999 9.25876 15.9561 9.02466 15.8712 8.80627C15.7863 8.58788 15.6618 8.38948 15.505 8.2224L14.875 7.5496V14.2C14.875 14.8896 14.6182 15.5509 14.1611 16.0385C13.704 16.5261 13.084 16.8 12.4375 16.8H5.97175Z" fill="#1117A3"/>
</svg>
