<svg width="20" height="20" viewBox="0 0 20 20" fill="none" xmlns="http://www.w3.org/2000/svg">
<path d="M10.0027 8.09389C9.50874 8.09389 9.04618 8.2754 8.69595 8.60712C8.34738 8.93883 8.1541 9.37695 8.1541 9.8448C8.1541 10.3126 8.34738 10.7508 8.69595 11.0825C9.04618 11.4126 9.50874 11.5957 10.0027 11.5957C10.4966 11.5957 10.9592 11.4126 11.3094 11.0825C11.658 10.7508 11.8513 10.3126 11.8513 9.8448C11.8513 9.37695 11.658 8.93883 11.3094 8.60712C11.1384 8.44385 10.9348 8.31441 10.7104 8.2263C10.4861 8.1382 10.2455 8.09319 10.0027 8.09389ZM16.8139 11.7788L15.7335 10.9041C15.7847 10.6068 15.8111 10.3033 15.8111 10.0013C15.8111 9.69928 15.7847 9.39416 15.7335 9.09843L16.8139 8.22376C16.8955 8.15759 16.9539 8.06945 16.9814 7.97106C17.0088 7.87268 17.004 7.76871 16.9675 7.67299L16.9527 7.63231C16.6553 6.84478 16.2098 6.11479 15.6377 5.47771L15.6079 5.44485C15.5385 5.36748 15.4459 5.31186 15.3423 5.28532C15.2388 5.25879 15.1293 5.26258 15.0281 5.2962L13.6867 5.7484C13.191 5.36349 12.6393 5.05993 12.0413 4.8487L11.7819 3.52026C11.7623 3.42019 11.7111 3.32812 11.6349 3.2563C11.5588 3.18447 11.4614 3.13628 11.3557 3.11814L11.3111 3.11031C10.452 2.96323 9.54673 2.96323 8.68769 3.11031L8.64309 3.11814C8.53736 3.13628 8.43995 3.18447 8.36382 3.2563C8.2877 3.32812 8.23644 3.42019 8.21687 3.52026L7.95586 4.85496C7.3635 5.06788 6.81167 5.37069 6.32203 5.75153L4.97069 5.2962C4.86953 5.26232 4.75988 5.25839 4.65631 5.28494C4.55273 5.31149 4.46014 5.36726 4.39084 5.44485L4.3611 5.47771C3.78999 6.11547 3.34458 6.84527 3.04611 7.63231L3.03124 7.67299C2.9569 7.86858 3.01803 8.08764 3.18488 8.22376L4.2785 9.10782C4.22729 9.40199 4.20251 9.70241 4.20251 9.9997C4.20251 10.3001 4.22729 10.6006 4.2785 10.8916L3.18818 11.7756C3.10657 11.8418 3.04815 11.93 3.02071 12.0283C2.99326 12.1267 2.99809 12.2307 3.03455 12.3264L3.04941 12.3671C3.34843 13.1541 3.78951 13.8817 4.36441 14.5217L4.39414 14.5546C4.46362 14.6319 4.55621 14.6875 4.65972 14.7141C4.76323 14.7406 4.8728 14.7368 4.97399 14.7032L6.32533 14.2479C6.81763 14.6312 7.36609 14.9348 7.95916 15.1445L8.22018 16.4791C8.23975 16.5792 8.291 16.6713 8.36713 16.7431C8.44326 16.8149 8.54066 16.8631 8.64639 16.8813L8.691 16.8891C9.55849 17.037 10.4469 17.037 11.3144 16.8891L11.359 16.8813C11.4647 16.8631 11.5621 16.8149 11.6382 16.7431C11.7144 16.6713 11.7656 16.5792 11.7852 16.4791L12.0446 15.1507C12.6426 14.9379 13.1944 14.6359 13.69 14.251L15.0314 14.7032C15.1325 14.7371 15.2422 14.741 15.3458 14.7145C15.4493 14.6879 15.5419 14.6321 15.6112 14.5546L15.641 14.5217C16.2159 13.8786 16.6569 13.1541 16.956 12.3671L16.9708 12.3264C17.0419 12.1324 16.9807 11.9149 16.8139 11.7788ZM10.0027 12.5955C8.39859 12.5955 7.09847 11.3641 7.09847 9.8448C7.09847 8.32547 8.39859 7.09405 10.0027 7.09405C11.6068 7.09405 12.9069 8.32547 12.9069 9.8448C12.9069 11.3641 11.6068 12.5955 10.0027 12.5955Z" fill="#1117A3"/>
</svg>
