<svg width="16" height="16" viewBox="0 0 16 16" fill="none" xmlns="http://www.w3.org/2000/svg">
<g id="icons8-delete 1">
<path id="Vector" d="M6.83313 1.33305C6.7526 1.33202 6.67301 1.35045 6.60113 1.38679C6.52926 1.42312 6.46722 1.47628 6.4203 1.54173C6.37338 1.60719 6.34297 1.68302 6.33164 1.76275C6.32032 1.84249 6.32842 1.92378 6.35527 1.99972H4.88001C4.26759 1.99972 3.6941 2.3062 3.35461 2.81612L2.56555 3.99972H2.4998C2.43354 3.99878 2.36776 4.01102 2.30628 4.03573C2.24479 4.06043 2.18883 4.09711 2.14165 4.14364C2.09446 4.19016 2.05699 4.24559 2.03142 4.30672C2.00585 4.36785 1.99268 4.43345 1.99268 4.49972C1.99268 4.56598 2.00585 4.63158 2.03142 4.69271C2.05699 4.75384 2.09446 4.80927 2.14165 4.8558C2.18883 4.90232 2.24479 4.939 2.30628 4.96371C2.36776 4.98841 2.43354 5.00065 2.4998 4.99972H2.75435C2.79724 5.0062 2.8408 5.00707 2.88391 5.00232L3.70813 12.695C3.80758 13.6225 4.59841 14.333 5.53105 14.333H10.4679C11.4005 14.333 12.1914 13.6225 12.2908 12.695L13.1157 5.00232C13.1579 5.00685 13.2006 5.00597 13.2426 4.99972H13.4998C13.5661 5.00065 13.6318 4.98841 13.6933 4.96371C13.7548 4.939 13.8108 4.90232 13.8579 4.8558C13.9051 4.80927 13.9426 4.75384 13.9682 4.69271C13.9937 4.63158 14.0069 4.56598 14.0069 4.49972C14.0069 4.43345 13.9937 4.36785 13.9682 4.30672C13.9426 4.24559 13.9051 4.19016 13.8579 4.14364C13.8108 4.09711 13.7548 4.06043 13.6933 4.03573C13.6318 4.01102 13.5661 3.99878 13.4998 3.99972H13.434L12.645 2.81612C12.3052 2.30648 11.7318 1.99972 11.1196 1.99972H9.64433C9.67117 1.92378 9.67927 1.84249 9.66795 1.76275C9.65663 1.68302 9.62621 1.60719 9.57929 1.54173C9.53237 1.47628 9.47033 1.42312 9.39846 1.38679C9.32658 1.35045 9.24699 1.33202 9.16646 1.33305H6.83313ZM4.88001 2.99972H11.1196C11.3987 2.99972 11.658 3.13846 11.8129 3.37081L12.2322 3.99972H3.76737L4.18665 3.37081C4.18686 3.37059 4.18708 3.37038 4.1873 3.37016C4.34179 3.1381 4.60042 2.99972 4.88001 2.99972ZM3.88977 4.99972H12.1098L11.2967 12.5883C11.2508 13.0161 10.8979 13.333 10.4679 13.333H5.53105C5.10102 13.333 4.7488 13.0161 4.70292 12.5883L3.88977 4.99972Z" fill="#667085"/>
</g>
</svg>
