	<svg
		xmlns="http://www.w3.org/2000/svg"
		width="36"
		height="36"
		viewBox="0 0 36 36"
		fill="none"
	>
		<path
			d="M33.9429 18.7647V16.2059C33.9429 13.8176 31.5429 11.9412 29.1429 11.9412C26.7429 11.9412 24.3429 13.8176 24.3429 16.2059V18.7647C23.3143 18.7647 22.2857 19.7882 22.2857 20.8118V26.7824C22.2857 27.9765 23.3143 29 24.3429 29H33.7714C34.9714 29 36 27.9765 36 26.9529V20.9824C36 19.7882 34.9714 18.7647 33.9429 18.7647ZM31.7143 18.7647H26.5714V16.2059C26.5714 14.8412 27.7714 13.9882 29.1429 13.9882C30.5143 13.9882 31.7143 14.8412 31.7143 16.2059V18.7647ZM5.14286 11.9412H22.3543C21.6171 12.9476 21.1714 14.1076 21.0171 15.3529H5.14286V11.9412ZM24.1029 10.2353H3.42857V25.5882H0V6.82353L17.1429 0L34.2857 6.82353V10.3035C32.8161 9.1618 31.0073 8.5378 29.1429 8.52941C27.2571 8.52941 25.5086 9.19471 24.1029 10.2353ZM18.8571 25.5882H5.14286V22.1765H18.8571V25.5882ZM5.14286 17.0588H20.4857C19.5771 17.98 18.9943 19.1741 18.8571 20.4706H5.14286V17.0588Z"
			fill="white"
		/>
	</svg>