<svg width="24" height="24" viewBox="0 0 24 24" fill="none" xmlns="http://www.w3.org/2000/svg">
<g id="icons">
<path id="Vector" d="M20.009 5.52493L14.166 2.51643L14.1645 2.51593C12.809 1.82093 11.1905 1.82193 9.834 2.51643L3.991 5.52493C3.0715 5.99843 2.5 6.93493 2.5 7.96943V16.0299C2.5 17.0644 3.0715 18.0014 3.991 18.4749L9.835 21.4839C10.512 21.8309 11.256 22.0044 11.999 22.0044C12.743 22.0044 13.487 21.8309 14.1655 21.4834L20.0085 18.4749C20.9285 18.0014 21.4995 17.0649 21.4995 16.0299V7.96943C21.5 6.93493 20.9285 5.99843 20.009 5.52493ZM12 5.49993C12.6905 5.49993 13.25 5.83593 13.25 6.24993C13.25 6.66393 12.6905 6.99993 12 6.99993C11.3095 6.99993 10.75 6.66393 10.75 6.24993C10.75 5.83593 11.3095 5.49993 12 5.49993ZM4.75 12.4999C4.336 12.4999 4 11.9404 4 11.2499C4 10.5594 4.336 9.99993 4.75 9.99993C5.164 9.99993 5.5 10.5594 5.5 11.2499C5.5 11.9404 5.164 12.4999 4.75 12.4999ZM6.75 15.4999C6.336 15.4999 6 14.9404 6 14.2499C6 13.5594 6.336 12.9999 6.75 12.9999C7.164 12.9999 7.5 13.5594 7.5 14.2499C7.5 14.9404 7.164 15.4999 6.75 15.4999ZM8.75 18.4999C8.336 18.4999 8 17.9404 8 17.2499C8 16.5594 8.336 15.9999 8.75 15.9999C9.164 15.9999 9.5 16.5594 9.5 17.2499C9.5 17.9404 9.164 18.4999 8.75 18.4999ZM15.75 17.4999C15.336 17.4999 15 16.9404 15 16.2499C15 15.5594 15.336 14.9999 15.75 14.9999C16.164 14.9999 16.5 15.5594 16.5 16.2499C16.5 16.9404 16.164 17.4999 15.75 17.4999ZM18.25 12.9999C17.836 12.9999 17.5 12.4404 17.5 11.7499C17.5 11.0594 17.836 10.4999 18.25 10.4999C18.664 10.4999 19 11.0594 19 11.7499C19 12.4404 18.664 12.9999 18.25 12.9999ZM19.569 8.42843L14.153 10.9729C13.711 11.2029 13.236 11.3494 12.75 11.4269V19.7429C12.75 20.1574 12.414 20.4929 12 20.4929C11.586 20.4929 11.25 20.1574 11.25 19.7429V11.4244C10.758 11.3449 10.274 11.1954 9.8205 10.9594L4.431 8.42843C4.056 8.25243 3.895 7.80543 4.071 7.43093C4.247 7.05543 4.694 6.89443 5.0685 7.07093L10.4845 9.61543C11.4435 10.1129 12.5565 10.1119 13.488 9.62843L18.931 7.07093C19.3055 6.89443 19.7525 7.05593 19.9285 7.43093C20.105 7.80593 19.944 8.25243 19.569 8.42843Z" fill="#F79009"/>
</g>
</svg>
