<svg
	
		xmlns="http://www.w3.org/2000/svg"
		width="16"
		height="16"
		viewBox="0 0 16 16"
		fill="none"
	>
		<path
			d="M1 2.6573C1 2.21776 1.16594 1.79622 1.46131 1.48541C1.75668 1.17461 2.15728 1 2.575 1H9.575C9.99272 1 10.3933 1.17461 10.6887 1.48541C10.9841 1.79622 11.15 2.21776 11.15 2.6573V3.20974H12.235C12.844 3.20974 13.3984 3.57877 13.6588 4.15772L14.8488 6.79983C14.9482 7.02154 15 7.26388 15 7.50916V11.4963C15 11.9358 14.8341 12.3574 14.5387 12.6682C14.2433 12.979 13.8427 13.1536 13.425 13.1536H12.1713C12.0894 13.6694 11.8363 14.1379 11.4571 14.4758C11.0778 14.8138 10.597 14.9992 10.1 14.9992C9.60303 14.9992 9.12216 14.8138 8.74291 14.4758C8.36365 14.1379 8.11058 13.6694 8.0287 13.1536H6.572C6.49017 13.6702 6.23664 14.1394 5.8566 14.4776C5.47657 14.8157 4.99474 15.0009 4.49703 15C3.99932 14.9991 3.51809 14.8122 3.13915 14.4727C2.7602 14.1332 2.50817 13.6631 2.428 13.1462C2.03747 13.1077 1.67465 12.9172 1.41054 12.612C1.14642 12.3069 1.00003 11.909 1 11.4963V2.6573ZM13.95 10.2072H13.075C12.9358 10.2072 12.8022 10.2655 12.7038 10.3691C12.6053 10.4727 12.55 10.6132 12.55 10.7597C12.55 10.9062 12.6053 11.0467 12.7038 11.1503C12.8022 11.2539 12.9358 11.3121 13.075 11.3121H13.95V10.2072ZM13.7281 6.89264L12.711 4.6306C12.6684 4.53605 12.6012 4.45615 12.5172 4.40021C12.4332 4.34427 12.3358 4.31459 12.2364 4.31461H11.15V6.89264H13.7281ZM4.5 13.8901C4.77848 13.8901 5.04555 13.7737 5.24246 13.5665C5.43938 13.3593 5.55 13.0783 5.55 12.7853C5.55 12.4922 5.43938 12.2112 5.24246 12.004C5.04555 11.7968 4.77848 11.6804 4.5 11.6804C4.22152 11.6804 3.95445 11.7968 3.75754 12.004C3.56062 12.2112 3.45 12.4922 3.45 12.7853C3.45 13.0783 3.56062 13.3593 3.75754 13.5665C3.95445 13.7737 4.22152 13.8901 4.5 13.8901ZM11.15 12.7853C11.15 12.4922 11.0394 12.2112 10.8425 12.004C10.6455 11.7968 10.3785 11.6804 10.1 11.6804C9.82152 11.6804 9.55445 11.7968 9.35754 12.004C9.16062 12.2112 9.05 12.4922 9.05 12.7853C9.05 13.0783 9.16062 13.3593 9.35754 13.5665C9.55445 13.7737 9.82152 13.8901 10.1 13.8901C10.3785 13.8901 10.6455 13.7737 10.8425 13.5665C11.0394 13.3593 11.15 13.0783 11.15 12.7853Z"
			fill="#4F4F4F"
		/>
	</svg>