<svg width="16" height="16" viewBox="0 0 14 14" fill="none" xmlns="http://www.w3.org/2000/svg">
<path fill-rule="evenodd" clip-rule="evenodd" d="M1.5 0H12.5C13.35 0 14 0.674074 14 1.55556V9.33333C14 10.2148 13.35 10.8889 12.5 10.8889H9H4.95H1.5C0.65 10.8889 0 10.2148 0 9.33333V1.55556C0 0.674074 0.65 0 1.5 0ZM9 6.22222H11.5C11.8 6.22222 12 6.01481 12 5.7037C12 5.39259 11.8 5.18518 11.5 5.18518H9.25L8.4 3.83704C8.3 3.68148 8.15 3.62963 7.95 3.62963C7.8 3.62963 7.6 3.78519 7.55 3.94074L6.95 5.44444L6.45 4.40741C6.4 4.3037 6.25 4.2 6.1 4.14815C5.95 4.14815 5.75 4.2 5.65 4.3037L4.8 5.18518H2.5C2.2 5.18518 2 5.39259 2 5.7037C2 6.01481 2.2 6.22222 2.5 6.22222H5C5.15 6.22222 5.25 6.17037 5.35 6.01481L5.85 5.4963L6.55 6.94815C6.65 7.15556 6.8 7.25926 7 7.25926C7.2 7.25926 7.4 7.1037 7.5 6.94815L8.15 5.28889L8.6 6.01481C8.7 6.11852 8.85 6.22222 9 6.22222ZM9.25034 12.0299C9.45034 12.6002 9.95034 12.9632 10.5003 12.9632C10.8003 12.9632 11.0003 13.1706 11.0003 13.4817C11.0003 13.7928 10.8003 14.0002 10.5003 14.0002H3.50034C3.20034 14.0002 3.00034 13.7928 3.00034 13.4817C3.00034 13.1706 3.20034 12.9632 3.50034 12.9632C4.05034 12.9632 4.55034 12.6002 4.70034 12.0299C4.75034 12.0299 4.75034 11.978 4.75034 11.9262H9.20034C9.25034 11.9262 9.25034 11.978 9.25034 12.0299Z" fill="#1117A3"/>
</svg>
