<svg
		xmlns="http://www.w3.org/2000/svg"
		width="36"
		height="36"
		viewBox="0 0 36 36"
		fill="none"
	>
		<path
			d="M27 10.5C27.0004 10.797 27.0887 11.0872 27.2538 11.3341C27.4189 11.5809 27.6533 11.7734 27.9276 11.8873C28.2018 12.0012 28.5037 12.0314 28.7951 11.974C29.0865 11.9166 29.3543 11.7743 29.565 11.565C30.165 10.965 31.125 7.875 31.125 7.875C31.125 7.875 28.035 8.835 27.435 9.435C27.165 9.705 27 10.08 27 10.5Z"
			fill="white"
		/>
		<path
			d="M27.8182 1.5C23.3018 1.5 19.6364 5.21368 19.6364 9.78947C19.6364 13.1882 21.6491 16.1061 24.5455 17.3826V19.7368H26.1818V29.6842H22.9091V19.7368H16.3636V6.47368C16.3636 4.65 14.8909 3.15789 13.0909 3.15789H3.27273C1.47273 3.15789 0 4.65 0 6.47368V29.6842C0 31.5079 1.47273 33 3.27273 33H13.0909C14.8909 33 16.3636 31.5079 16.3636 29.6842V23.0526H19.6364V33H29.4545V19.7368H31.0909V17.3826C33.9873 16.1061 36 13.1882 36 9.78947C36 5.21368 32.3345 1.5 27.8182 1.5ZM6.54545 30.5132L3.27273 27.1974V22.5055L6.54545 25.8213V30.5132ZM6.54545 22.2237L3.27273 18.9079V14.2161L6.54545 17.5318V22.2237ZM6.54545 13.9342L3.27273 10.6184V5.92658L6.54545 9.24237V13.9342ZM13.0909 27.1974L9.81818 30.5132V25.8213L13.0909 22.5055V27.1974ZM13.0909 18.9079L9.81818 22.2237V17.5318L13.0909 14.2161V18.9079ZM13.0909 10.6184L9.81818 13.9342V9.24237L13.0909 5.92658V10.6184ZM27.8182 14.7632C25.1018 14.7632 22.9091 12.5416 22.9091 9.78947C22.9091 7.03737 25.1018 4.81579 27.8182 4.81579C30.5345 4.81579 32.7273 7.03737 32.7273 9.78947C32.7273 12.5416 30.5345 14.7632 27.8182 14.7632Z"
			fill="white"
		/>
	</svg>