<svg width="48" height="48" viewBox="0 0 45 45" fill="none" xmlns="http://www.w3.org/2000/svg">
<path fill-rule="evenodd" clip-rule="evenodd" d="M41 22.5C41 32.7173 32.7173 41 22.5 41C18.3239 41 14.4709 39.6163 11.3746 37.2822L37.2822 11.3746C39.6163 14.4709 41 18.3238 41 22.5ZM8.45657 34.5434L34.5434 8.45657C31.3071 5.67858 27.0996 4 22.5 4C12.2827 4 4 12.2827 4 22.5C4 27.0996 5.67858 31.3071 8.45657 34.5434ZM45 22.5C45 34.9264 34.9264 45 22.5 45C10.0736 45 0 34.9264 0 22.5C0 10.0736 10.0736 0 22.5 0C34.9264 0 45 10.0736 45 22.5Z" fill="#146BEB"/>
</svg>
