<svg width="16" height="16" viewBox="0 0 16 16" fill="none" xmlns="http://www.w3.org/2000/svg">
<g id="icons8-right_arrow 1">
<path id="Vector" d="M4.5046 3.99463C4.6041 3.99465 4.70134 4.02436 4.78387 4.07996C4.86639 4.13556 4.93046 4.21452 4.96786 4.30673C5.00526 4.39894 5.0143 4.50021 4.99382 4.59759C4.97334 4.69496 4.92428 4.78402 4.8529 4.85335L2.37309 7.33317H14.8327C14.899 7.33223 14.9648 7.34447 15.0262 7.36918C15.0877 7.39389 15.1437 7.43057 15.1909 7.47709C15.2381 7.52361 15.2755 7.57905 15.3011 7.64018C15.3267 7.70131 15.3398 7.76691 15.3398 7.83317C15.3398 7.89943 15.3267 7.96504 15.3011 8.02616C15.2755 8.08729 15.2381 8.14273 15.1909 8.18925C15.1437 8.23577 15.0877 8.27245 15.0262 8.29716C14.9648 8.32187 14.899 8.33411 14.8327 8.33317H2.37309L4.8529 10.813C4.90089 10.8591 4.9392 10.9142 4.96559 10.9753C4.99198 11.0364 5.00593 11.1021 5.0066 11.1686C5.00728 11.2351 4.99467 11.3011 4.96953 11.3627C4.94439 11.4243 4.90721 11.4802 4.86017 11.5273C4.81313 11.5743 4.75718 11.6115 4.69559 11.6366C4.634 11.6618 4.56802 11.6744 4.5015 11.6737C4.43498 11.673 4.36926 11.6591 4.3082 11.6327C4.24713 11.6063 4.19195 11.568 4.14587 11.52L0.81254 8.18669C0.718807 8.09291 0.666153 7.96576 0.666153 7.83317C0.666153 7.70058 0.718807 7.57343 0.81254 7.47966L4.14587 4.14632C4.19248 4.09833 4.24824 4.06017 4.30986 4.03411C4.37148 4.00806 4.4377 3.99463 4.5046 3.99463Z" fill="#98A2B3"/>
</g>
</svg>
