<svg width="16" height="16" viewBox="0 0 16 16" fill="none" xmlns="http://www.w3.org/2000/svg">
<g id="icons8-right_arrow 1">
<path id="Vector" d="M11.4954 3.99463C11.3959 3.99465 11.2987 4.02436 11.2161 4.07996C11.1336 4.13556 11.0695 4.21452 11.0321 4.30673C10.9947 4.39894 10.9857 4.50021 11.0062 4.59759C11.0267 4.69496 11.0757 4.78402 11.1471 4.85335L13.6269 7.33317H1.16728C1.10102 7.33223 1.03524 7.34447 0.973756 7.36918C0.912272 7.39389 0.856311 7.43057 0.809126 7.47709C0.761942 7.52361 0.724474 7.57905 0.6989 7.64018C0.673326 7.70131 0.660156 7.76691 0.660156 7.83317C0.660156 7.89943 0.673326 7.96504 0.6989 8.02616C0.724474 8.08729 0.761942 8.14273 0.809126 8.18925C0.856311 8.23577 0.912272 8.27245 0.973756 8.29716C1.03524 8.32187 1.10102 8.33411 1.16728 8.33317H13.6269L11.1471 10.813C11.0991 10.8591 11.0608 10.9142 11.0344 10.9753C11.008 11.0364 10.9941 11.1021 10.9934 11.1686C10.9927 11.2351 11.0053 11.3011 11.0305 11.3627C11.0556 11.4243 11.0928 11.4802 11.1398 11.5273C11.1869 11.5743 11.2428 11.6115 11.3044 11.6366C11.366 11.6618 11.432 11.6744 11.4985 11.6737C11.565 11.673 11.6307 11.6591 11.6918 11.6327C11.7529 11.6063 11.8081 11.568 11.8541 11.52L15.1875 8.18669C15.2812 8.09291 15.3338 7.96576 15.3338 7.83317C15.3338 7.70058 15.2812 7.57343 15.1875 7.47966L11.8541 4.14632C11.8075 4.09833 11.7518 4.06017 11.6901 4.03411C11.6285 4.00806 11.5623 3.99463 11.4954 3.99463Z" fill="#98A2B3"/>
</g>
</svg>
