<svg width="18" height="18" viewBox="0 0 16 16" fill="none" xmlns="http://www.w3.org/2000/svg">
<g clip-path="url(#clip0_348_3643)">
<rect x="1" y="1" width="14" height="14" rx="4" fill="#606EEA"/>
<path d="M4.21154 13H3.51923C3.38152 13 3.24945 12.9473 3.15208 12.8536C3.0547 12.7598 3 12.6326 3 12.5V9.5C3 9.36739 3.0547 9.24022 3.15208 9.14645C3.24945 9.05268 3.38152 9 3.51923 9H4.21154C4.34925 9 4.48132 9.05268 4.57869 9.14645C4.67606 9.24022 4.73077 9.36739 4.73077 9.5V12.5C4.73077 12.6326 4.67606 12.7598 4.57869 12.8536C4.48132 12.9473 4.34925 13 4.21154 13V13ZM9.05769 13H8.36538C8.22768 13 8.09561 12.9473 7.99823 12.8536C7.90086 12.7598 7.84615 12.6326 7.84615 12.5V7.5C7.84615 7.36739 7.90086 7.24021 7.99823 7.14645C8.09561 7.05268 8.22768 7 8.36538 7H9.05769C9.1954 7 9.32747 7.05268 9.42484 7.14645C9.52222 7.24021 9.57692 7.36739 9.57692 7.5V12.5C9.57692 12.6326 9.52222 12.7598 9.42484 12.8536C9.32747 12.9473 9.1954 13 9.05769 13V13ZM11.4808 13H10.7885C10.6508 13 10.5187 12.9473 10.4213 12.8536C10.3239 12.7598 10.2692 12.6326 10.2692 12.5V5.16667C10.2692 5.03406 10.3239 4.90688 10.4213 4.81311C10.5187 4.71935 10.6508 4.66667 10.7885 4.66667H11.4808C11.6185 4.66667 11.7505 4.71935 11.8479 4.81311C11.9453 4.90688 12 5.03406 12 5.16667V12.5C12 12.6326 11.9453 12.7598 11.8479 12.8536C11.7505 12.9473 11.6185 13 11.4808 13V13ZM6.63462 13H5.94231C5.8046 13 5.67253 12.9473 5.57516 12.8536C5.47778 12.7598 5.42308 12.6326 5.42308 12.5V3.5C5.42308 3.36739 5.47778 3.24021 5.57516 3.14645C5.67253 3.05268 5.8046 3 5.94231 3H6.63462C6.77232 3 6.90439 3.05268 7.00177 3.14645C7.09914 3.24021 7.15385 3.36739 7.15385 3.5V12.5C7.15385 12.6326 7.09914 12.7598 7.00177 12.8536C6.90439 12.9473 6.77232 13 6.63462 13V13Z" fill="white"/>
</g>
<defs>
<clipPath id="clip0_348_3643">
<rect width="16" height="16" fill="white"/>
</clipPath>
</defs>
</svg>
