<svg width="10" height="12" viewBox="0 0 10 12" fill="none" xmlns="http://www.w3.org/2000/svg">
<path d="M5.34591 0.805742C5.15291 0.620742 4.84791 0.620742 4.65491 0.805742L0.821577 4.47241C0.67391 4.61374 0.627244 4.83041 0.703244 5.02008C0.779244 5.20974 0.962577 5.33374 1.16691 5.33374H8.83358C9.03758 5.33374 9.22158 5.20941 9.29791 5.02008C9.37391 4.83074 9.32691 4.61374 9.17958 4.47241L5.34591 0.805742ZM8.83358 6.66708H1.16691C0.962577 6.66708 0.77891 6.79141 0.70291 6.98074C0.62691 7.17007 0.67391 7.38707 0.821244 7.52841L4.65458 11.1951C4.75124 11.2874 4.87558 11.3337 5.00024 11.3337C5.12491 11.3337 5.24924 11.2874 5.34591 11.1951L9.17924 7.52841C9.32658 7.38707 9.37358 7.17041 9.29758 6.98074C9.22158 6.79141 9.03758 6.66708 8.83358 6.66708Z" fill="#D0D5DD"/>
</svg>
